<svg width="24" height="24" viewBox="0 0 24 24" fill="none" xmlns="http://www.w3.org/2000/svg">
<path d="M5.29339 4.9375C5.89669 4.56016 6.29752 3.8916 6.29752 3.13281C6.29752 1.95566 5.33471 1 4.14876 1C2.96281 1 2 1.95566 2 3.13281C2 3.81777 2.32231 4.4248 2.82645 4.81445V22H4.80992V19.375H20.9091C21.5124 19.375 22 18.891 22 18.2922C22 18.1404 21.9669 17.9928 21.905 17.8533L19.3554 12.1562L21.905 6.45918C21.9669 6.31973 22 6.17207 22 6.02031C22 5.42148 21.5124 4.9375 20.9091 4.9375H5.29339ZM4.80992 17.4062V6.90625H19.5372L17.5455 11.3564C17.3182 11.865 17.3182 12.4475 17.5455 12.9561L19.5372 17.4062H4.80992Z" fill="black"/>
</svg>
